<svg xmlns="http://www.w3.org/2000/svg" width="1100" height="790" viewBox="0 0 1100 790" role="img"><title>The scan is only the beginning.</title><rect width="1100" height="790" fill="#14120e"/><text x="38" y="46" fill="#e3a857" font-size="18" text-anchor="start" font-family="Arial,sans-serif">ORCHESTRA / UI &amp; ACCESSIBILITY</text><text x="38" y="108.0" fill="#f6eee1" font-size="50" text-anchor="start" font-family="Georgia,serif">The scan is only the beginning.</text><text x="38" y="240" fill="#e3a857" font-size="88" text-anchor="start" font-family="Georgia,serif">95.9%</text><text x="38" y="290.0" fill="#f6eee1" font-size="30" text-anchor="start" font-family="Arial,sans-serif">of sampled home pages had</text><text x="38" y="330.5" fill="#f6eee1" font-size="30" text-anchor="start" font-family="Arial,sans-serif">detected WCAG failures</text><rect x="625" y="210" width="25" height="25" rx="6" fill="#14120e" stroke="#75654d"/><rect x="625" y="210" width="25" height="25" rx="6" fill="#e3a857" stroke="#e3a857"/><rect x="661" y="210" width="25" height="25" rx="6" fill="#14120e" stroke="#75654d"/><rect x="661" y="210" width="25" height="25" rx="6" fill="#e3a857" stroke="#e3a857"/><rect x="697" y="210" width="25" height="25" rx="6" fill="#14120e" stroke="#75654d"/><rect x="697" y="210" width="25" height="25" rx="6" fill="#e3a857" stroke="#e3a857"/><rect x="733" y="210" width="25" height="25" rx="6" fill="#14120e" stroke="#75654d"/><rect x="733" y="210" width="25" height="25" rx="6" fill="#e3a857" stroke="#e3a857"/><rect x="769" y="210" width="25" height="25" rx="6" fill="#14120e" stroke="#75654d"/><rect x="769" y="210" width="25" height="25" rx="6" fill="#e3a857" stroke="#e3a857"/><rect x="805" y="210" width="25" height="25" rx="6" fill="#14120e" stroke="#75654d"/><rect x="805" y="210" width="25" height="25" rx="6" fill="#e3a857" stroke="#e3a857"/><rect x="841" y="210" width="25" height="25" rx="6" fill="#14120e" stroke="#75654d"/><rect x="841" y="210" width="25" height="25" rx="6" fill="#e3a857" stroke="#e3a857"/><rect x="877" y="210" width="25" height="25" rx="6" fill="#14120e" stroke="#75654d"/><rect x="877" y="210" width="25" height="25" rx="6" fill="#e3a857" stroke="#e3a857"/><rect x="913" y="210" width="25" height="25" rx="6" fill="#14120e" stroke="#75654d"/><rect x="913" y="210" width="25" height="25" rx="6" fill="#e3a857" stroke="#e3a857"/><rect x="949" y="210" width="25" height="25" rx="6" fill="#14120e" stroke="#75654d"/><rect x="949" y="210" width="25" height="25" rx="6" fill="#e3a857" stroke="#e3a857"/><rect x="625" y="246" width="25" height="25" rx="6" fill="#14120e" stroke="#75654d"/><rect x="625" y="246" width="25" height="25" rx="6" fill="#e3a857" stroke="#e3a857"/><rect x="661" y="246" width="25" height="25" rx="6" fill="#14120e" stroke="#75654d"/><rect x="661" y="246" width="25" height="25" rx="6" fill="#e3a857" stroke="#e3a857"/><rect x="697" y="246" width="25" height="25" rx="6" fill="#14120e" stroke="#75654d"/><rect x="697" y="246" width="25" height="25" rx="6" fill="#e3a857" stroke="#e3a857"/><rect x="733" y="246" width="25" height="25" rx="6" fill="#14120e" stroke="#75654d"/><rect x="733" y="246" width="25" height="25" rx="6" fill="#e3a857" stroke="#e3a857"/><rect x="769" y="246" width="25" height="25" rx="6" fill="#14120e" stroke="#75654d"/><rect x="769" y="246" width="25" height="25" rx="6" fill="#e3a857" stroke="#e3a857"/><rect x="805" y="246" width="25" height="25" rx="6" fill="#14120e" stroke="#75654d"/><rect x="805" y="246" width="25" height="25" rx="6" fill="#e3a857" stroke="#e3a857"/><rect x="841" y="246" width="25" height="25" rx="6" fill="#14120e" stroke="#75654d"/><rect x="841" y="246" width="25" height="25" rx="6" fill="#e3a857" stroke="#e3a857"/><rect x="877" y="246" width="25" height="25" rx="6" fill="#14120e" stroke="#75654d"/><rect x="877" y="246" width="25" height="25" rx="6" fill="#e3a857" stroke="#e3a857"/><rect x="913" y="246" width="25" height="25" rx="6" fill="#14120e" stroke="#75654d"/><rect x="913" y="246" width="25" height="25" rx="6" fill="#e3a857" stroke="#e3a857"/><rect x="949" y="246" width="25" height="25" rx="6" fill="#14120e" stroke="#75654d"/><rect x="949" y="246" width="25" height="25" rx="6" fill="#e3a857" stroke="#e3a857"/><rect x="625" y="282" width="25" height="25" rx="6" fill="#14120e" stroke="#75654d"/><rect x="625" y="282" width="25" height="25" rx="6" fill="#e3a857" stroke="#e3a857"/><rect x="661" y="282" width="25" height="25" rx="6" fill="#14120e" stroke="#75654d"/><rect x="661" y="282" width="25" height="25" rx="6" fill="#e3a857" stroke="#e3a857"/><rect x="697" y="282" width="25" height="25" rx="6" fill="#14120e" stroke="#75654d"/><rect x="697" y="282" width="25" height="25" rx="6" fill="#e3a857" stroke="#e3a857"/><rect x="733" y="282" width="25" height="25" rx="6" fill="#14120e" stroke="#75654d"/><rect x="733" y="282" width="25" height="25" rx="6" fill="#e3a857" stroke="#e3a857"/><rect x="769" y="282" width="25" height="25" rx="6" fill="#14120e" stroke="#75654d"/><rect x="769" y="282" width="25" height="25" rx="6" fill="#e3a857" stroke="#e3a857"/><rect x="805" y="282" width="25" height="25" rx="6" fill="#14120e" stroke="#75654d"/><rect x="805" y="282" width="25" height="25" rx="6" fill="#e3a857" stroke="#e3a857"/><rect x="841" y="282" width="25" height="25" rx="6" fill="#14120e" stroke="#75654d"/><rect x="841" y="282" width="25" height="25" rx="6" fill="#e3a857" stroke="#e3a857"/><rect x="877" y="282" width="25" height="25" rx="6" fill="#14120e" stroke="#75654d"/><rect x="877" y="282" width="25" height="25" rx="6" fill="#e3a857" stroke="#e3a857"/><rect x="913" y="282" width="25" height="25" rx="6" fill="#14120e" stroke="#75654d"/><rect x="913" y="282" width="25" height="25" rx="6" fill="#e3a857" stroke="#e3a857"/><rect x="949" y="282" width="25" height="25" rx="6" fill="#14120e" stroke="#75654d"/><rect x="949" y="282" width="25" height="25" rx="6" fill="#e3a857" stroke="#e3a857"/><rect x="625" y="318" width="25" height="25" rx="6" fill="#14120e" stroke="#75654d"/><rect x="625" y="318" width="25" height="25" rx="6" fill="#e3a857" stroke="#e3a857"/><rect x="661" y="318" width="25" height="25" rx="6" fill="#14120e" stroke="#75654d"/><rect x="661" y="318" width="25" height="25" rx="6" fill="#e3a857" stroke="#e3a857"/><rect x="697" y="318" width="25" height="25" rx="6" fill="#14120e" stroke="#75654d"/><rect x="697" y="318" width="25" height="25" rx="6" fill="#e3a857" stroke="#e3a857"/><rect x="733" y="318" width="25" height="25" rx="6" fill="#14120e" stroke="#75654d"/><rect x="733" y="318" width="25" height="25" rx="6" fill="#e3a857" stroke="#e3a857"/><rect x="769" y="318" width="25" height="25" rx="6" fill="#14120e" stroke="#75654d"/><rect x="769" y="318" width="25" height="25" rx="6" fill="#e3a857" stroke="#e3a857"/><rect x="805" y="318" width="25" height="25" rx="6" fill="#14120e" stroke="#75654d"/><rect x="805" y="318" width="25" height="25" rx="6" fill="#e3a857" stroke="#e3a857"/><rect x="841" y="318" width="25" height="25" rx="6" fill="#14120e" stroke="#75654d"/><rect x="841" y="318" width="25" height="25" rx="6" fill="#e3a857" stroke="#e3a857"/><rect x="877" y="318" width="25" height="25" rx="6" fill="#14120e" stroke="#75654d"/><rect x="877" y="318" width="25" height="25" rx="6" fill="#e3a857" stroke="#e3a857"/><rect x="913" y="318" width="25" height="25" rx="6" fill="#14120e" stroke="#75654d"/><rect x="913" y="318" width="25" height="25" rx="6" fill="#e3a857" stroke="#e3a857"/><rect x="949" y="318" width="25" height="25" rx="6" fill="#14120e" stroke="#75654d"/><rect x="949" y="318" width="25" height="25" rx="6" fill="#e3a857" stroke="#e3a857"/><rect x="625" y="354" width="25" height="25" rx="6" fill="#14120e" stroke="#75654d"/><rect x="625" y="354" width="25" height="25" rx="6" fill="#e3a857" stroke="#e3a857"/><rect x="661" y="354" width="25" height="25" rx="6" fill="#14120e" stroke="#75654d"/><rect x="661" y="354" width="25" height="25" rx="6" fill="#e3a857" stroke="#e3a857"/><rect x="697" y="354" width="25" height="25" rx="6" fill="#14120e" stroke="#75654d"/><rect x="697" y="354" width="25" height="25" rx="6" fill="#e3a857" stroke="#e3a857"/><rect x="733" y="354" width="25" height="25" rx="6" fill="#14120e" stroke="#75654d"/><rect x="733" y="354" width="25" height="25" rx="6" fill="#e3a857" stroke="#e3a857"/><rect x="769" y="354" width="25" height="25" rx="6" fill="#14120e" stroke="#75654d"/><rect x="769" y="354" width="25" height="25" rx="6" fill="#e3a857" stroke="#e3a857"/><rect x="805" y="354" width="25" height="25" rx="6" fill="#14120e" stroke="#75654d"/><rect x="805" y="354" width="25" height="25" rx="6" fill="#e3a857" stroke="#e3a857"/><rect x="841" y="354" width="25" height="25" rx="6" fill="#14120e" stroke="#75654d"/><rect x="841" y="354" width="25" height="25" rx="6" fill="#e3a857" stroke="#e3a857"/><rect x="877" y="354" width="25" height="25" rx="6" fill="#14120e" stroke="#75654d"/><rect x="877" y="354" width="25" height="25" rx="6" fill="#e3a857" stroke="#e3a857"/><rect x="913" y="354" width="25" height="25" rx="6" fill="#14120e" stroke="#75654d"/><rect x="913" y="354" width="25" height="25" rx="6" fill="#e3a857" stroke="#e3a857"/><rect x="949" y="354" width="25" height="25" rx="6" fill="#14120e" stroke="#75654d"/><rect x="949" y="354" width="25" height="25" rx="6" fill="#e3a857" stroke="#e3a857"/><rect x="625" y="390" width="25" height="25" rx="6" fill="#14120e" stroke="#75654d"/><rect x="625" y="390" width="25" height="25" rx="6" fill="#e3a857" stroke="#e3a857"/><rect x="661" y="390" width="25" height="25" rx="6" fill="#14120e" stroke="#75654d"/><rect x="661" y="390" width="25" height="25" rx="6" fill="#e3a857" stroke="#e3a857"/><rect x="697" y="390" width="25" height="25" rx="6" fill="#14120e" stroke="#75654d"/><rect x="697" y="390" width="25" height="25" rx="6" fill="#e3a857" stroke="#e3a857"/><rect x="733" y="390" width="25" height="25" rx="6" fill="#14120e" stroke="#75654d"/><rect x="733" y="390" width="25" height="25" rx="6" fill="#e3a857" stroke="#e3a857"/><rect x="769" y="390" width="25" height="25" rx="6" fill="#14120e" stroke="#75654d"/><rect x="769" y="390" width="25" height="25" rx="6" fill="#e3a857" stroke="#e3a857"/><rect x="805" y="390" width="25" height="25" rx="6" fill="#14120e" stroke="#75654d"/><rect x="805" y="390" width="25" height="25" rx="6" fill="#e3a857" stroke="#e3a857"/><rect x="841" y="390" width="25" height="25" rx="6" fill="#14120e" stroke="#75654d"/><rect x="841" y="390" width="25" height="25" rx="6" fill="#e3a857" stroke="#e3a857"/><rect x="877" y="390" width="25" height="25" rx="6" fill="#14120e" stroke="#75654d"/><rect x="877" y="390" width="25" height="25" rx="6" fill="#e3a857" stroke="#e3a857"/><rect x="913" y="390" width="25" height="25" rx="6" fill="#14120e" stroke="#75654d"/><rect x="913" y="390" width="25" height="25" rx="6" fill="#e3a857" stroke="#e3a857"/><rect x="949" y="390" width="25" height="25" rx="6" fill="#14120e" stroke="#75654d"/><rect x="949" y="390" width="25" height="25" rx="6" fill="#e3a857" stroke="#e3a857"/><rect x="625" y="426" width="25" height="25" rx="6" fill="#14120e" stroke="#75654d"/><rect x="625" y="426" width="25" height="25" rx="6" fill="#e3a857" stroke="#e3a857"/><rect x="661" y="426" width="25" height="25" rx="6" fill="#14120e" stroke="#75654d"/><rect x="661" y="426" width="25" height="25" rx="6" fill="#e3a857" stroke="#e3a857"/><rect x="697" y="426" width="25" height="25" rx="6" fill="#14120e" stroke="#75654d"/><rect x="697" y="426" width="25" height="25" rx="6" fill="#e3a857" stroke="#e3a857"/><rect x="733" y="426" width="25" height="25" rx="6" fill="#14120e" stroke="#75654d"/><rect x="733" y="426" width="25" height="25" rx="6" fill="#e3a857" stroke="#e3a857"/><rect x="769" y="426" width="25" height="25" rx="6" fill="#14120e" stroke="#75654d"/><rect x="769" y="426" width="25" height="25" rx="6" fill="#e3a857" stroke="#e3a857"/><rect x="805" y="426" width="25" height="25" rx="6" fill="#14120e" stroke="#75654d"/><rect x="805" y="426" width="25" height="25" rx="6" fill="#e3a857" stroke="#e3a857"/><rect x="841" y="426" width="25" height="25" rx="6" fill="#14120e" stroke="#75654d"/><rect x="841" y="426" width="25" height="25" rx="6" fill="#e3a857" stroke="#e3a857"/><rect x="877" y="426" width="25" height="25" rx="6" fill="#14120e" stroke="#75654d"/><rect x="877" y="426" width="25" height="25" rx="6" fill="#e3a857" stroke="#e3a857"/><rect x="913" y="426" width="25" height="25" rx="6" fill="#14120e" stroke="#75654d"/><rect x="913" y="426" width="25" height="25" rx="6" fill="#e3a857" stroke="#e3a857"/><rect x="949" y="426" width="25" height="25" rx="6" fill="#14120e" stroke="#75654d"/><rect x="949" y="426" width="25" height="25" rx="6" fill="#e3a857" stroke="#e3a857"/><rect x="625" y="462" width="25" height="25" rx="6" fill="#14120e" stroke="#75654d"/><rect x="625" y="462" width="25" height="25" rx="6" fill="#e3a857" stroke="#e3a857"/><rect x="661" y="462" width="25" height="25" rx="6" fill="#14120e" stroke="#75654d"/><rect x="661" y="462" width="25" height="25" rx="6" fill="#e3a857" stroke="#e3a857"/><rect x="697" y="462" width="25" height="25" rx="6" fill="#14120e" stroke="#75654d"/><rect x="697" y="462" width="25" height="25" rx="6" fill="#e3a857" stroke="#e3a857"/><rect x="733" y="462" width="25" height="25" rx="6" fill="#14120e" stroke="#75654d"/><rect x="733" y="462" width="25" height="25" rx="6" fill="#e3a857" stroke="#e3a857"/><rect x="769" y="462" width="25" height="25" rx="6" fill="#14120e" stroke="#75654d"/><rect x="769" y="462" width="25" height="25" rx="6" fill="#e3a857" stroke="#e3a857"/><rect x="805" y="462" width="25" height="25" rx="6" fill="#14120e" stroke="#75654d"/><rect x="805" y="462" width="25" height="25" rx="6" fill="#e3a857" stroke="#e3a857"/><rect x="841" y="462" width="25" height="25" rx="6" fill="#14120e" stroke="#75654d"/><rect x="841" y="462" width="25" height="25" rx="6" fill="#e3a857" stroke="#e3a857"/><rect x="877" y="462" width="25" height="25" rx="6" fill="#14120e" stroke="#75654d"/><rect x="877" y="462" width="25" height="25" rx="6" fill="#e3a857" stroke="#e3a857"/><rect x="913" y="462" width="25" height="25" rx="6" fill="#14120e" stroke="#75654d"/><rect x="913" y="462" width="25" height="25" rx="6" fill="#e3a857" stroke="#e3a857"/><rect x="949" y="462" width="25" height="25" rx="6" fill="#14120e" stroke="#75654d"/><rect x="949" y="462" width="25" height="25" rx="6" fill="#e3a857" stroke="#e3a857"/><rect x="625" y="498" width="25" height="25" rx="6" fill="#14120e" stroke="#75654d"/><rect x="625" y="498" width="25" height="25" rx="6" fill="#e3a857" stroke="#e3a857"/><rect x="661" y="498" width="25" height="25" rx="6" fill="#14120e" stroke="#75654d"/><rect x="661" y="498" width="25" height="25" rx="6" fill="#e3a857" stroke="#e3a857"/><rect x="697" y="498" width="25" height="25" rx="6" fill="#14120e" stroke="#75654d"/><rect x="697" y="498" width="25" height="25" rx="6" fill="#e3a857" stroke="#e3a857"/><rect x="733" y="498" width="25" height="25" rx="6" fill="#14120e" stroke="#75654d"/><rect x="733" y="498" width="25" height="25" rx="6" fill="#e3a857" stroke="#e3a857"/><rect x="769" y="498" width="25" height="25" rx="6" fill="#14120e" stroke="#75654d"/><rect x="769" y="498" width="25" height="25" rx="6" fill="#e3a857" stroke="#e3a857"/><rect x="805" y="498" width="25" height="25" rx="6" fill="#14120e" stroke="#75654d"/><rect x="805" y="498" width="25" height="25" rx="6" fill="#e3a857" stroke="#e3a857"/><rect x="841" y="498" width="25" height="25" rx="6" fill="#14120e" stroke="#75654d"/><rect x="841" y="498" width="25" height="25" rx="6" fill="#e3a857" stroke="#e3a857"/><rect x="877" y="498" width="25" height="25" rx="6" fill="#14120e" stroke="#75654d"/><rect x="877" y="498" width="25" height="25" rx="6" fill="#e3a857" stroke="#e3a857"/><rect x="913" y="498" width="25" height="25" rx="6" fill="#14120e" stroke="#75654d"/><rect x="913" y="498" width="25" height="25" rx="6" fill="#e3a857" stroke="#e3a857"/><rect x="949" y="498" width="25" height="25" rx="6" fill="#14120e" stroke="#75654d"/><rect x="949" y="498" width="25" height="25" rx="6" fill="#e3a857" stroke="#e3a857"/><rect x="625" y="534" width="25" height="25" rx="6" fill="#14120e" stroke="#75654d"/><rect x="625" y="534" width="25" height="25" rx="6" fill="#e3a857" stroke="#e3a857"/><rect x="661" y="534" width="25" height="25" rx="6" fill="#14120e" stroke="#75654d"/><rect x="661" y="534" width="25" height="25" rx="6" fill="#e3a857" stroke="#e3a857"/><rect x="697" y="534" width="25" height="25" rx="6" fill="#14120e" stroke="#75654d"/><rect x="697" y="534" width="25" height="25" rx="6" fill="#e3a857" stroke="#e3a857"/><rect x="733" y="534" width="25" height="25" rx="6" fill="#14120e" stroke="#75654d"/><rect x="733" y="534" width="25" height="25" rx="6" fill="#e3a857" stroke="#e3a857"/><rect x="769" y="534" width="25" height="25" rx="6" fill="#14120e" stroke="#75654d"/><rect x="769" y="534" width="25" height="25" rx="6" fill="#e3a857" stroke="#e3a857"/><rect x="805" y="534" width="25" height="25" rx="6" fill="#14120e" stroke="#75654d"/><rect x="805" y="534" width="22.5" height="25" fill="#e3a857"/><rect x="841" y="534" width="25" height="25" rx="6" fill="#14120e" stroke="#75654d"/><rect x="877" y="534" width="25" height="25" rx="6" fill="#14120e" stroke="#75654d"/><rect x="913" y="534" width="25" height="25" rx="6" fill="#14120e" stroke="#75654d"/><rect x="949" y="534" width="25" height="25" rx="6" fill="#14120e" stroke="#75654d"/><text x="38" y="480.0" fill="#c7bba8" font-size="28" text-anchor="start" font-family="Arial,sans-serif">4.1% had no detected failures.</text><text x="38" y="517.8" fill="#c7bba8" font-size="28" text-anchor="start" font-family="Arial,sans-serif">That does not establish</text><text x="38" y="555.6" fill="#c7bba8" font-size="28" text-anchor="start" font-family="Arial,sans-serif">accessibility.</text><path d="M38 682L1062 682" fill="none" stroke="#75654d" stroke-width="2"/><text x="38" y="712.0" fill="#c7bba8" font-size="19" text-anchor="start" font-family="Arial,sans-serif">WebAIM Million · February 2026 · 1,000,000 home pages</text><text x="38" y="770" fill="#e3a857" font-size="18" text-anchor="start" font-family="Arial,sans-serif">ai.hyperdrift.io/articles</text></svg>