<svg xmlns="http://www.w3.org/2000/svg" width="1100" height="910" viewBox="0 0 1100 910" role="img"><title>Choose where the work belongs.</title><rect width="1100" height="910" fill="#14120e"/><text x="38" y="46" fill="#e3a857" font-size="18" text-anchor="start" font-family="Arial,sans-serif">ORCHESTRA / UI &amp; ACCESSIBILITY</text><text x="38" y="108.0" fill="#f6eee1" font-size="50" text-anchor="start" font-family="Georgia,serif">Choose where the work belongs.</text><rect x="38" y="208" width="1024" height="310" rx="6" fill="#14120e" stroke="#e3a857"/><text x="65" y="251" fill="#e3a857" font-size="23" text-anchor="start" font-family="Arial,sans-serif">OPEN WEB PAGE</text><text x="80" y="333" fill="#f6eee1" font-size="30" text-anchor="start" font-family="Arial,sans-serif">Person</text><text x="345" y="333" fill="#f6eee1" font-size="30" text-anchor="start" font-family="Arial,sans-serif">Controls</text><path d="M192 323L316 323" fill="none" stroke="#75654d" stroke-width="2"/><text x="80" y="417" fill="#f6eee1" font-size="30" text-anchor="start" font-family="Arial,sans-serif">Browser agent</text><text x="345" y="417" fill="#f6eee1" font-size="30" text-anchor="start" font-family="Arial,sans-serif">WebMCP tools</text><path d="M280 407L316 407" fill="none" stroke="#75654d" stroke-width="2"/><path d="M560 324C560 344.0 830 344.0 830 364" fill="none" stroke="#90c5b8" stroke-width="3"/><path d="M560 410C560 387.0 830 387.0 830 364" fill="none" stroke="#90c5b8" stroke-width="3"/><text x="790" y="337" fill="#90c5b8" font-size="30" text-anchor="start" font-family="Arial,sans-serif">App actions</text><text x="790" y="411" fill="#c7bba8" font-size="25" text-anchor="start" font-family="Arial,sans-serif">Visible state</text><rect x="38" y="567" width="1024" height="200" rx="6" fill="#14120e" stroke="#75654d"/><text x="65" y="610" fill="#e3a857" font-size="23" text-anchor="start" font-family="Arial,sans-serif">SERVICE CONNECTION</text><text x="65" y="670.0" fill="#f6eee1" font-size="30" text-anchor="start" font-family="Arial,sans-serif">Assistant → MCP server → service API</text><text x="65" y="721.0" fill="#c7bba8" font-size="23" text-anchor="start" font-family="Arial,sans-serif">An open page is not required for this route.</text><path d="M38 802L1062 802" fill="none" stroke="#75654d" stroke-width="2"/><text x="38" y="832.0" fill="#c7bba8" font-size="19" text-anchor="start" font-family="Arial,sans-serif">Conceptual boundaries · Routes may coexist</text><text x="38" y="890" fill="#e3a857" font-size="18" text-anchor="start" font-family="Arial,sans-serif">ai.hyperdrift.io/articles</text></svg>