<svg xmlns="http://www.w3.org/2000/svg" width="600" height="1010" viewBox="0 0 600 1010" role="img"><title>Change the input. Keep the work.</title><rect width="600" height="1010" fill="#14120e"/><text x="38" y="46" fill="#e3a857" font-size="18" text-anchor="start" font-family="Arial,sans-serif">ORCHESTRA / UI &amp; ACCESSIBILITY</text><text x="38" y="108.0" fill="#f6eee1" font-size="42" text-anchor="start" font-family="Georgia,serif">Change the input. Keep</text><text x="38" y="164.7" fill="#f6eee1" font-size="42" text-anchor="start" font-family="Georgia,serif">the work.</text><circle cx="300" cy="498" r="130" stroke="#e3a857" stroke-width="2" fill="#14120e"/><circle cx="300" cy="498" r="144" stroke="#75654d" stroke-width="2" fill="#14120e"/><text x="300" y="465" fill="#e3a857" font-size="22" text-anchor="middle" font-family="Arial,sans-serif">THE TASK</text><text x="300" y="505" fill="#f6eee1" font-size="25" text-anchor="middle" font-family="Arial,sans-serif">Shortlist + evidence</text><text x="300" y="546" fill="#f6eee1" font-size="24" text-anchor="middle" font-family="Arial,sans-serif">Your decisions</text><path d="M145 270C145 332.7 241.1 332.7 241.1 395.4" fill="none" stroke="#90c5b8" stroke-width="3"/><circle cx="145" cy="270" r="13" stroke="#90c5b8" stroke-width="2" fill="#14120e"/><text x="145" y="238" fill="#f6eee1" font-size="28" text-anchor="middle" font-family="Arial,sans-serif">Speech</text><path d="M455 270C455 332.7 358.9 332.7 358.9 395.4" fill="none" stroke="#90c5b8" stroke-width="3"/><circle cx="455" cy="270" r="13" stroke="#90c5b8" stroke-width="2" fill="#14120e"/><text x="455" y="238" fill="#f6eee1" font-size="28" text-anchor="middle" font-family="Arial,sans-serif">Keyboard</text><path d="M145 758C145 686.5 241.1 686.5 241.1 615.0" fill="none" stroke="#90c5b8" stroke-width="3"/><circle cx="145" cy="758" r="13" stroke="#90c5b8" stroke-width="2" fill="#14120e"/><text x="145" y="810" fill="#f6eee1" font-size="28" text-anchor="middle" font-family="Arial,sans-serif">Screen reader</text><path d="M455 758C455 686.5 358.9 686.5 358.9 615.0" fill="none" stroke="#90c5b8" stroke-width="3"/><circle cx="455" cy="758" r="13" stroke="#90c5b8" stroke-width="2" fill="#14120e"/><text x="455" y="810" fill="#f6eee1" font-size="28" text-anchor="middle" font-family="Arial,sans-serif">Direct controls</text><path d="M38 902L562 902" fill="none" stroke="#75654d" stroke-width="2"/><text x="38" y="932.0" fill="#c7bba8" font-size="19" text-anchor="start" font-family="Arial,sans-serif">Design goal · Continuity must be implemented and</text><text x="38" y="957.65" fill="#c7bba8" font-size="19" text-anchor="start" font-family="Arial,sans-serif">tested</text><text x="38" y="990" fill="#e3a857" font-size="18" text-anchor="start" font-family="Arial,sans-serif">ai.hyperdrift.io/articles</text></svg>